<svg id="Layer_1" data-name="Layer 1" xmlns="http://www.w3.org/2000/svg" viewBox="0 0 1031.32 281.8"><defs><style>.cls-1{fill:#33e899;}.cls-2{fill:#fff;}</style></defs><title>Logo</title><path class="cls-1" d="M223.14,41.59a129.31,129.31,0,1,0-110,225.75A125.49,125.49,0,0,0,132.38,270h0a30.06,30.06,0,0,1-.08-34.35,94.44,94.44,0,0,1-51.61-20.7A95,95,0,0,1,193.94,62.41L118.76,116l-.87.62A94.89,94.89,0,0,0,78.6,186.78l119-84.88,21-15L246.47,67A129.93,129.93,0,0,0,223.14,41.59Z"/><circle class="cls-1" cx="189.13" cy="252.72" r="17.49"/><path class="cls-2" d="M395.14,250.11A56.61,56.61,0,0,1,382.52,240a63.47,63.47,0,0,1-8.27-10.74,56,56,0,0,1-4.65-9.87,54.63,54.63,0,0,1-2.17-7.25,22.85,22.85,0,0,1-.44-2.9q-4.65-27.27,12-52.23t44.83-32.79q28.15-8.12,51.36,5.51a56.07,56.07,0,0,1,22.06,22.93,63.7,63.7,0,0,1,6.09,18q.57,4.06.87,7.69c.19,2.42.29,4.11.29,5.07v1.75l-102.72,29A31.84,31.84,0,0,0,412.26,224q13.33,7.83,29.45,3.33a43.36,43.36,0,0,0,25.39-18.71l24.37,14.22a84.06,84.06,0,0,1-19.73,20.45,76.72,76.72,0,0,1-25.24,12.34,69.82,69.82,0,0,1-19.73,2.9A60.81,60.81,0,0,1,395.14,250.11Zm8.12-78.92a43.54,43.54,0,0,0-6.38,14.8l71.67-20.61a36.56,36.56,0,0,0-10.45-9.86,37.27,37.27,0,0,0-18.28-4.64,43,43,0,0,0-11,1.45A45.27,45.27,0,0,0,403.26,171.19Z"/><path class="cls-2" d="M560,180.18l-9.29,77.48H521.09l9.28-77.48,7-57.16h29.59l-.87,6.38q15.09-8.12,30.47-8.12,24.38,0,39.61,17.26t12.33,41.64l-9.58,77.48h-29.3l9.28-77.48a27.78,27.78,0,0,0-2.17-14.65,23.7,23.7,0,0,0-9.43-10.74,26.68,26.68,0,0,0-14.22-3.91,32.26,32.26,0,0,0-21.91,8.56A31.91,31.91,0,0,0,560,180.18Z"/><path class="cls-2" d="M756.7,121.28l-3.48,29.6H716.66l-7,57.45a22,22,0,0,0-.12,2.79l-5.08,42.66-.46,3.86H674.42l5.36-45c0-1.41.14-2.84.32-4.3l7-57.45H665.3l3.48-29.31h21.76l3.06-24.95L695.77,79l9.35-5.09,22.26-12L726.65,68l-6.5,53.3Z"/><path class="cls-2" d="M818.24,129.4q15.07-8.12,30.46-8.12a57.76,57.76,0,0,1,16,2.32l-3.77,32.5a25.48,25.48,0,0,0-15.67-5.22,32.28,32.28,0,0,0-21.91,8.56,32,32,0,0,0-11.17,20.74l-9.28,77.48h-29.6l9.29-77.48,7-57.16h29.6Z"/><polygon class="cls-2" points="1020.3 124.18 939.39 257.64 906.55 257.64 921.94 232.12 881.9 124.18 914.98 124.18 942.54 198.46 982 133.17 987.52 124.18 1020.3 124.18"/><path class="cls-2" d="M349.42,124.18l-85.89,141.6-21.59-58.2-20.48-55.24-42.34,30.21-11.2,8a82.64,82.64,0,0,1-61.55,9.28L208,127.33l3.3-2.37,1.13-.8,24.74-17.64,10.24,27.31,24.25,64.63,44.68-74.28Z"/></svg>